<svg width="100" height="25" viewBox="0 0 183 25" fill="none" xmlns="http://www.w3.org/2000/svg">
<path d="M7.26136 24L0.602273 0.727272H5.97727L9.82955 16.8977H10.0227L14.2727 0.727272H18.875L23.1136 16.9318H23.3182L27.1705 0.727272H32.5455L25.8864 24H21.0909L16.6591 8.78409H16.4773L12.0568 24H7.26136ZM41.0994 24.3409C39.3343 24.3409 37.8078 23.9659 36.5199 23.2159C35.2396 22.4583 34.2509 21.4053 33.554 20.0568C32.857 18.7008 32.5085 17.1288 32.5085 15.3409C32.5085 13.5379 32.857 11.9621 33.554 10.6136C34.2509 9.25758 35.2396 8.20454 36.5199 7.45454C37.8078 6.69697 39.3343 6.31818 41.0994 6.31818C42.8646 6.31818 44.3873 6.69697 45.6676 7.45454C46.9555 8.20454 47.9479 9.25758 48.6449 10.6136C49.3419 11.9621 49.6903 13.5379 49.6903 15.3409C49.6903 17.1288 49.3419 18.7008 48.6449 20.0568C47.9479 21.4053 46.9555 22.4583 45.6676 23.2159C44.3873 23.9659 42.8646 24.3409 41.0994 24.3409ZM41.1222 20.5909C41.9252 20.5909 42.5956 20.3636 43.1335 19.9091C43.6714 19.447 44.0767 18.8182 44.3494 18.0227C44.6297 17.2273 44.7699 16.322 44.7699 15.3068C44.7699 14.2917 44.6297 13.3864 44.3494 12.5909C44.0767 11.7955 43.6714 11.1667 43.1335 10.7045C42.5956 10.2424 41.9252 10.0114 41.1222 10.0114C40.3116 10.0114 39.6297 10.2424 39.0767 10.7045C38.5313 11.1667 38.1184 11.7955 37.8381 12.5909C37.5653 13.3864 37.429 14.2917 37.429 15.3068C37.429 16.322 37.5653 17.2273 37.8381 18.0227C38.1184 18.8182 38.5313 19.447 39.0767 19.9091C39.6297 20.3636 40.3116 20.5909 41.1222 20.5909ZM55.8438 24L51.0938 6.54545H55.9915L58.696 18.2727H58.8551L61.6733 6.54545H66.4801L69.3438 18.2045H69.4915L72.1506 6.54545H77.0369L72.2983 24H67.1733L64.1733 13.0227H63.9574L60.9574 24H55.8438ZM80.7784 0.727272H83.233L91.6761 21H91.8807L100.324 0.727272H102.778V24H100.778V5.21591H100.597L92.7443 24H90.8125L82.9602 5.21591H82.7784V24H80.7784V0.727272ZM115.33 24.3636C113.822 24.3636 112.489 23.9811 111.33 23.2159C110.178 22.4508 109.277 21.3939 108.625 20.0455C107.973 18.6894 107.648 17.125 107.648 15.3523C107.648 13.5644 107.973 11.9924 108.625 10.6364C109.277 9.27273 110.178 8.21212 111.33 7.45454C112.489 6.68939 113.822 6.30682 115.33 6.30682C116.837 6.30682 118.167 6.68939 119.318 7.45454C120.47 8.2197 121.371 9.2803 122.023 10.6364C122.682 11.9924 123.011 13.5644 123.011 15.3523C123.011 17.125 122.686 18.6894 122.034 20.0455C121.383 21.3939 120.477 22.4508 119.318 23.2159C118.167 23.9811 116.837 24.3636 115.33 24.3636ZM115.33 22.5114C116.542 22.5114 117.568 22.1856 118.409 21.5341C119.25 20.8826 119.886 20.0152 120.318 18.9318C120.758 17.8485 120.977 16.6553 120.977 15.3523C120.977 14.0492 120.758 12.8523 120.318 11.7614C119.886 10.6705 119.25 9.79545 118.409 9.13636C117.568 8.47727 116.542 8.14773 115.33 8.14773C114.125 8.14773 113.098 8.47727 112.25 9.13636C111.409 9.79545 110.769 10.6705 110.33 11.7614C109.898 12.8523 109.682 14.0492 109.682 15.3523C109.682 16.6553 109.898 17.8485 110.33 18.9318C110.769 20.0152 111.409 20.8826 112.25 21.5341C113.091 22.1856 114.117 22.5114 115.33 22.5114ZM140.338 6.54545L133.963 24H131.804L125.429 6.54545H127.622L132.804 21.3295H132.963L138.145 6.54545H140.338ZM144.318 24V6.54545H146.352V24H144.318ZM145.352 3.54545C144.936 3.54545 144.58 3.4053 144.284 3.125C143.989 2.83712 143.841 2.49242 143.841 2.09091C143.841 1.68939 143.989 1.34848 144.284 1.06818C144.58 0.780302 144.936 0.636362 145.352 0.636362C145.769 0.636362 146.125 0.780302 146.42 1.06818C146.716 1.34848 146.864 1.68939 146.864 2.09091C146.864 2.49242 146.716 2.83712 146.42 3.125C146.125 3.4053 145.769 3.54545 145.352 3.54545ZM158.759 24.3636C157.13 24.3636 155.721 23.9848 154.531 23.2273C153.342 22.4621 152.421 21.4053 151.77 20.0568C151.126 18.7008 150.804 17.1402 150.804 15.375C150.804 13.6174 151.126 12.0568 151.77 10.6932C152.421 9.32197 153.319 8.25 154.463 7.47727C155.615 6.69697 156.944 6.30682 158.452 6.30682C159.399 6.30682 160.312 6.48106 161.19 6.82954C162.069 7.17045 162.857 7.69697 163.554 8.40909C164.259 9.11364 164.815 10.0038 165.224 11.0795C165.634 12.1477 165.838 13.4129 165.838 14.875V15.875H152.202V14.0909H163.77C163.77 12.9697 163.543 11.9621 163.088 11.0682C162.641 10.1667 162.016 9.45455 161.213 8.93182C160.418 8.40909 159.497 8.14773 158.452 8.14773C157.346 8.14773 156.372 8.44318 155.531 9.03409C154.69 9.625 154.031 10.4053 153.554 11.375C153.084 12.3447 152.846 13.4053 152.838 14.5568V15.625C152.838 17.0114 153.077 18.2235 153.554 19.2614C154.039 20.2917 154.724 21.0909 155.611 21.6591C156.497 22.2273 157.546 22.5114 158.759 22.5114C159.584 22.5114 160.308 22.3826 160.929 22.125C161.558 21.8674 162.084 21.5227 162.509 21.0909C162.94 20.6515 163.266 20.1705 163.486 19.6477L165.406 20.2727C165.141 21.0076 164.705 21.6856 164.099 22.3068C163.501 22.928 162.751 23.428 161.849 23.8068C160.955 24.178 159.925 24.3636 158.759 24.3636ZM182.023 10.375L180.17 10.8977C179.989 10.375 179.731 9.90151 179.398 9.47727C179.064 9.05303 178.629 8.71591 178.091 8.46591C177.561 8.21591 176.902 8.09091 176.114 8.09091C174.932 8.09091 173.962 8.37121 173.205 8.93182C172.447 9.49242 172.068 10.2159 172.068 11.1023C172.068 11.8523 172.326 12.4621 172.841 12.9318C173.364 13.3939 174.167 13.7614 175.25 14.0341L177.886 14.6818C179.348 15.0379 180.443 15.6023 181.17 16.375C181.905 17.1477 182.273 18.1174 182.273 19.2841C182.273 20.2689 182 21.1439 181.455 21.9091C180.909 22.6742 180.148 23.2765 179.17 23.7159C178.201 24.1477 177.076 24.3636 175.795 24.3636C174.091 24.3636 172.686 23.9811 171.58 23.2159C170.473 22.4432 169.765 21.3295 169.455 19.875L171.398 19.3977C171.648 20.4356 172.136 21.2197 172.864 21.75C173.598 22.2803 174.564 22.5455 175.761 22.5455C177.102 22.5455 178.174 22.2462 178.977 21.6477C179.78 21.0417 180.182 20.2841 180.182 19.375C180.182 18.6705 179.947 18.0795 179.477 17.6023C179.008 17.1174 178.295 16.7614 177.341 16.5341L174.489 15.8523C172.973 15.4886 171.852 14.9129 171.125 14.125C170.398 13.3371 170.034 12.3598 170.034 11.1932C170.034 10.2311 170.295 9.38636 170.818 8.65909C171.341 7.92424 172.061 7.34848 172.977 6.93182C173.894 6.51515 174.939 6.30682 176.114 6.30682C177.712 6.30682 178.989 6.67045 179.943 7.39773C180.905 8.11742 181.598 9.10985 182.023 10.375Z" fill="url(#paint0_radial_206_2)"/>
<defs>
<radialGradient id="paint0_radial_206_2" cx="0" cy="0" r="1" gradientUnits="userSpaceOnUse" gradientTransform="translate(92.5 12.5) rotate(-141.99) scale(130.726 620.11)">
<stop stop-color="black"/>
<stop offset="2" stop-color="teal" stop-opacity="1"/>
</radialGradient>
</defs>
</svg>
